# xmcd CD database file
#
# Track frame offsets:
#	150
#	16667
#	53862
#	73980
#	115047
#	134532
#	156932
#	186462
#	205909
#	225720
#
# Disc length: 3280 seconds
#
# Revision: 0
# Processed by: cddbd v1.5.2PL0 Copyright (c) Steve Scherf et al.
# Submitted via: CDex 1.51
#
DISCID=8e0cce0a
DTITLE=Laco Deczi and Cellula New York - Djingy
DYEAR=1998
DGENRE=Jazz
TTITLE0=Map
TTITLE1=Bohemia
TTITLE2=Up and In
TTITLE3=Ablada
TTITLE4=Coach
TTITLE5=Djingy
TTITLE6=To Joseph
TTITLE7=Heating
TTITLE8=Good Tipper
TTITLE9=Cannibas Stupida
EXTD=YEAR: 1998
EXTT0=
EXTT1=
EXTT2=
EXTT3=
EXTT4=
EXTT5=
EXTT6=
EXTT7=
EXTT8=
EXTT9=
PLAYORDER=
